<svg xmlns="http://www.w3.org/2000/svg" viewBox="0 0 512 512" role="img" aria-label="Easy Language Learning Tool logo">
  <defs>
    <linearGradient id="ocean" x1="0" y1="0" x2="1" y2="1">
      <stop offset="0" stop-color="#60A5FA"/>
      <stop offset="1" stop-color="#1D4E89"/>
    </linearGradient>
    <linearGradient id="letters" x1="0" y1="1" x2="1" y2="0">
      <stop offset="0" stop-color="#F2C811"/>
      <stop offset="1" stop-color="#F59E0B"/>
    </linearGradient>
  </defs>
  <circle cx="236" cy="278" r="166" fill="url(#ocean)" stroke="#E7F1FB" stroke-width="14"/>
  <path d="M89 278h294M236 112c-58 54-86 109-86 166s28 112 86 166M236 112c58 54 86 109 86 166s-28 112-86 166M76 220h320M76 336h320" fill="none" stroke="#DCEBFA" stroke-width="10" opacity=".9"/>
  <path d="M133 179l31-19 42 13 14 24-25 20-18 30-42-9-18-30zm115 68l31-25 42 7 18 34-23 27-5 46-43 20-34-18 8-34-18-28z" fill="#7BC67B" stroke="#286A49" stroke-width="5"/>
  <path d="M331 139c49 18 86 58 102 108" fill="none" stroke="#F2C811" stroke-width="12" stroke-linecap="round"/>
  <g fill="url(#letters)" stroke="#8A5A00" stroke-width="2" font-family="Segoe UI, Arial, sans-serif" font-weight="700">
    <text x="350" y="117" font-size="62">A</text>
    <text x="410" y="168" font-size="54">Ñ</text>
    <text x="432" y="231" font-size="48">É</text>
    <text x="400" y="286" font-size="46">Ü</text>
    <text x="356" y="325" font-size="44">Ç</text>
  </g>
</svg>
